<svg id="Camada_1" data-name="Camada 1" xmlns="http://www.w3.org/2000/svg" viewBox="0 0 1173 319"><defs><style>.cls-1{fill:#fe7f00;}.cls-2{fill:#00bb98;}.cls-3{fill:#fec500;}.cls-4{fill:#fe7700;}.cls-5{fill:#fe9100;}.cls-6{fill:#fe4400;}.cls-7{fill:#fe5c00;}.cls-8{fill:#fea700;}.cls-9{fill:#fe8600;}.cls-10{fill:#fe6900;}.cls-11{fill:#fbf8e6;}.cls-12{fill:#ebf4e2;}.cls-13{fill:#fe9e00;}.cls-14{fill:#fe5000;}</style></defs><path class="cls-1" d="M306.89,81.36v4.55c0,50.41-.54,100.82.2,151.21.44,30.07-21.48,61-55.59,66.93a60.33,60.33,0,0,1-10.15.67c-18.71.07-37.42,0-56.12.12-3.94,0-7.23-1.56-10.66-3q-39.57-16.5-38.39-59.24c.14-4.86,0-9.73.41-14.74,4.25,7.76,9.13,14.86,15.78,20.72,9,8,19.78,11.35,31.33,13,4.3.62,4.52-2,4.51-5.27-.13-41.41-.11-82.81-.33-124.22,0-4.79.91-5.79,6.14-5.67,21.24.45,42.62,1.89,63.71-.46,23-2.56,37-17.67,45.8-38.13,1-2.21,1.76-4.48,2.63-6.72Z"/><path class="cls-2" d="M10.42,71.37C13.9,37.81,35.59,14.16,68.08,8.62a48.92,48.92,0,0,1,8.13-.48q82.65,0,165.31,0c32,0,61,25.69,65,57.24a24.78,24.78,0,0,1-1,11.55c-8.18,23.21-22.63,39.6-48.11,43.82-7,1.17-14.14.24-21.37.1,6.76-4,13.13-8.24,18.41-14,8.76-9.49,12.9-20.86,14-33.52.22-2.54-1-3.26-3.34-3.19-3.23.09-6.46,0-9.7,0-47.62,0-95.24.1-142.86,0C88.47,70.06,71,80.68,59.84,101.78a47.31,47.31,0,0,0-4.83,18c-.28,3.26-1.46,4.53-4.45,5.59-19.43,6.88-31.11,21-37.05,40.31-.09,2.14.24,4.39-1.57,6.1-2.14.81-1.73-.89-1.75-1.89-.07-4.4,0-8.8,0-13.21q0-39.89,0-79.78A21.15,21.15,0,0,1,10.42,71.37Z"/><path class="cls-3" d="M14.56,167c7-16.88,17.93-29.85,35.73-36.07a74.43,74.43,0,0,1,24.5-4.19c16.66,0,33.33.13,50-.12,4.19-.06,5.42.95,5.4,5.25-.18,37-.35,74,0,111,.18,19.36,5.5,36.89,21.89,49.29,6.5,4.93,13.88,8.32,22.71,12.26-2.64.17-3.85.32-5.07.32-31,0-61.9.09-92.85,0-36-.11-65.65-29.14-66.26-65-.32-19,0-38-.15-57,0-3,1.25-5.62,1.47-8.49-.43-1.15.23-2.15.46-3.22C13,169.6,13.11,167.94,14.56,167Z"/><path class="cls-4" d="M699,125.79c0-15.11.12-30.22-.08-45.32-.05-4.09,1-5.91,5.38-5.58a129.06,129.06,0,0,0,13.77,0c3.52-.12,4.95,1.44,4.83,4.85-.26,7.79-.15,15.58-.39,23.38-.42,13.39-.08,26.81.22,40.21.2,9.31-1,18.64.35,27.92,2.11,14.71,13.46,24,28.45,23.37,13.52-.55,24.17-11.58,25.1-26,.88-13.77-8.93-25.76-22.73-28.18-6.64-1.17-15.87,0-22.47-.33-2.58-.11-3.6-.64-3.5-3.41.2-5.59.06-11.2.06-16.8,0-1.75-.1-3.51,2.47-3.5,13.23.07,29.19-.84,41.69,5.24,22,10.72,33.25,34.21,27.5,58.17-5.47,22.8-26.84,39-50.74,38.41-22-.52-40.29-13.45-47.68-33.64A41.69,41.69,0,0,1,699,170.1C699,155.33,699,140.56,699,125.79Z"/><path class="cls-5" d="M624.5,148.86c-.55,8.71,1.07,19.27-1.26,29.69-5.53,24.74-27.55,41-53.77,39.6-24.33-1.27-45-20.34-47.51-44.56-1.81-17.58-.39-35.28-.67-52.92,0-3,1.73-4.17,4.56-4.16,4.93,0,9.87.15,14.79-.05,4.24-.17,5.65,1.71,5.62,5.78-.13,15.11-.06,30.21,0,45.32,0,10.59,4.75,18.7,13.82,23.89,17.16,9.85,39.1-2.48,39.58-22.31.38-15.26.1-30.55.12-45.82,0-6.44.37-6.79,7-6.81,4.25,0,8.51.1,12.76,0,3.69-.12,5.12,1.44,5,5.15C624.39,130.11,624.5,138.6,624.5,148.86Z"/><path class="cls-6" d="M1157.12,148.57c-.6,8.67,1.09,19.22-1.13,29.64-5.06,23.81-26.77,40.73-51.4,40-25.45-.72-46.61-18.65-49.74-43.16-2.31-18-.46-36.24-.87-54.37-.06-2.65,1.19-4.15,4-4.15,5.61,0,11.22,0,16.83,0,3.59,0,3.92,2.3,3.91,5.12,0,14.42,0,28.83,0,43.25,0,9.41,2.55,17.66,10.21,23.83,8.71,7,18.36,8,28.18,3.48s15.07-12.65,15.31-23.39c.33-15.26.1-30.53.13-45.79,0-6.25.27-6.49,6.7-6.52,4.42,0,8.84.08,13.25,0,3.42-.08,4.82,1.27,4.75,4.82C1157,129.8,1157.12,138.28,1157.12,148.57Z"/><path class="cls-7" d="M942.59,187.53c0,9.75-.23,17.74.1,25.7.18,4.25-1.52,5.29-5.33,5.12a138.81,138.81,0,0,0-14.28,0c-4.31.24-5.09-1.9-5.07-5.59.12-15.1.17-30.2,0-45.3-.16-16.43-13.3-28.31-29.67-27.08-13.61,1-24.09,12.72-24.24,27.39-.15,15.1-.17,30.21,0,45.31.06,4.06-1.23,5.46-5.21,5.26-5.09-.24-10.2-.1-15.3,0-2.75,0-4.17-1.17-4.1-3.93.45-18.3-1.49-36.7,1-54.9,3.31-24.75,24.76-42.55,50.55-42.87a51.07,51.07,0,0,1,50.61,41.72C943.5,168.62,942.05,179,942.59,187.53Z"/><path class="cls-8" d="M378.14,156.05c0,5.25-.31,10.61.53,15.72,1.78,10.78,12.14,23.66,28.75,23.06,13.56-.49,11.61-1.36,11.7,11.48.08,12,0,12-12.14,12-27.42-.11-47.54-16.16-52.74-42.19a42.07,42.07,0,0,1-.7-8.08c-.05-22.39.06-44.77-.11-67.15,0-4.17,1.16-5.84,5.46-5.58,4.91.3,9.85.16,14.78,0,3.15-.08,4.84.92,4.51,4.38-.2,2,0,4.07,0,6.1,0,10.41,0,10.41,10.68,10.39,3.57,0,7.14,0,10.71,0,2.92-.06,4.42,1.11,4.37,4.19-.08,5.09-.12,10.18,0,15.26.09,3.11-1.24,4.16-4.27,4.08-5.94-.16-11.9.1-17.84-.11-2.92-.1-3.86.85-3.71,3.74.21,4.23.05,8.47.05,12.71Z"/><path class="cls-9" d="M629.53,187.56c.37-9.05-1.09-19.82,1.17-30.38,5.24-24.46,25-39.88,51.65-40.67,10.75-.31,11.11-.43,11,10.41,0,4,.84,7.79-1.28,10.83s-7.12,1.87-11,2.1c-16.07,1-26.56,12-26.63,28.22-.06,14.76-.12,29.53,0,44.3.05,4.26-1.17,6.31-5.79,6a90.29,90.29,0,0,0-13.26,0c-4.9.39-6.16-1.8-6-6.26C629.7,204.46,629.53,196.82,629.53,187.56Z"/><path class="cls-10" d="M832.59,178.25c0,11.71-.11,23.41.06,35.11.06,3.77-1.29,5.13-5,5-5.77-.21-11.55-.14-17.33,0-3.06.06-4.62-.7-4.6-4.26q.18-36.37,0-72.75c0-3.1,1.13-4.29,4.14-4.25,5.95.08,11.9.17,17.84,0,3.8-.13,5,1.4,5,5.09C832.49,154.17,832.59,166.21,832.59,178.25Z"/><path class="cls-10" d="M818.76,129.44c-13,0-13,0-13-12.87,0-1.52,0-3,0-4.57-.1-2.84,1.37-3.94,4.06-3.92,6.28,0,12.55,0,18.83,0,2.73,0,4,1.3,4,4.06-.07,4.57-.05,9.14,0,13.71,0,2.53-1,3.7-3.65,3.6C825.55,129.33,822.16,129.43,818.76,129.44Z"/><path class="cls-11" d="M12.85,171.43c-.09,1,0,2-.93,2.77-3.24,1-2.25-1.52-2.26-2.89-.06-9.32,0-18.64,0-28q0-33.3,0-66.6c0-1.8-.58-3.75.77-5.38q0,47.32.1,94.65c0,1.52-.34,3.19.15,4.54.69,1.87.84-.15,1.25-.39C12.92,170.08,13.28,170.47,12.85,171.43Z"/><path class="cls-12" d="M12.85,171.43l-.93-1.26c.37-1.55.47-3.19,1.59-4.46L14.56,167Z"/><path class="cls-13" d="M465.89,218.27c-28.73,0-51.46-22.56-51.35-50.87s22.63-50.54,51.56-50.76c28-.22,51.67,23.15,51.63,51S494.41,218.3,465.89,218.27ZM492.8,167.8c.11-15.47-11.43-27.37-26.68-27.53S439.31,152,439.25,167.55c-.05,15.25,11.44,27.06,26.41,27.16C481.18,194.81,492.7,183.38,492.8,167.8Z"/><path class="cls-14" d="M998.23,218.26c-28.59-.24-51.69-23.34-51.18-51.18.51-28.11,23.65-50.77,51.52-50.45,28.94.33,52.16,23.36,51.74,51.32C1049.89,196.22,1026.82,218.5,998.23,218.26Zm.51-78c-15.25,0-26.76,11.69-26.81,27.2s11.41,27.26,26.69,27.26,26.79-11.5,26.81-27.1C1025.45,152.23,1013.76,140.24,998.74,140.26Z"/></svg>